<svg xmlns="http://www.w3.org/2000/svg" width="18" height="16.06" viewBox="0 0 18 16.06">
  <g id="camera" transform="translate(-1.125 -3.076)">
    <path id="Path_1837" data-name="Path 1837" d="M18.224,5.635H14.879L14.27,3.882a1.2,1.2,0,0,0-1.133-.806H7.1a1.2,1.2,0,0,0-1.136.813L5.366,5.635H2.025a.9.9,0,0,0-.9.9v11.7a.9.9,0,0,0,.9.9h16.2a.9.9,0,0,0,.9-.9V6.536a.9.9,0,0,0-.9-.9Zm-.3,12.3H2.325V6.835h3.9L7.1,4.276h6.04l.889,2.559h3.9Z" fill="#c4c4c4"/>
    <path id="Path_1838" data-name="Path 1838" d="M14.484,11.813a4.5,4.5,0,1,0,4.5,4.5A4.5,4.5,0,0,0,14.484,11.813Zm0,7.736a3.237,3.237,0,1,1,3.237-3.237A3.237,3.237,0,0,1,14.484,19.549Z" transform="translate(-3.963 -4.646)" fill="#c4c4c4"/>
  </g>
</svg>
