<svg xmlns="http://www.w3.org/2000/svg" width="25" height="18.75" viewBox="0 0 25 18.75">
  <path id="Path_1834" data-name="Path 1834" d="M1.563,23.25A1.53,1.53,0,0,1,0,21.688c0-1.562,1.563-6.25,9.375-6.25s9.375,4.688,9.375,6.25a1.53,1.53,0,0,1-1.562,1.563Zm7.813-9.375A4.687,4.687,0,1,0,4.688,9.188,4.687,4.687,0,0,0,9.375,13.875Zm10.938,2.344a.781.781,0,0,1,.781-.781h3.125a.781.781,0,0,1,0,1.563H21.094A.781.781,0,0,1,20.313,16.219Zm-3.125-4.687a.781.781,0,0,1,.781-.781h6.25a.781.781,0,0,1,0,1.563h-6.25A.781.781,0,0,1,17.188,11.531Zm0-4.687a.781.781,0,0,1,.781-.781h6.25a.781.781,0,0,1,0,1.563h-6.25A.781.781,0,0,1,17.188,6.844Zm3.125,14.063a.781.781,0,0,1,.781-.781h3.125a.781.781,0,0,1,0,1.563H21.094A.781.781,0,0,1,20.313,20.906Z" transform="translate(0 -4.5)" fill="#1f75e8" fill-rule="evenodd"/>
</svg>
